<svg
    viewBox="0 0 396 67"
    data-background-color="#39cccc"
    preserveAspectRatio="xMidYMid meet"
    xmlns="http://www.w3.org/2000/svg"
    xmlns:xlink="http://www.w3.org/1999/xlink"
>
    <!-- <rect
        width="640"
        height="400"
        x="0"
        y="0"
        opacity="1"
        fill="#39cccc"
        data-fill-palette-color="background"
        id="background"
    ></rect> -->
    <g id="tight-bounds">
        <svg
            viewBox="0 0 395.52 66.45865933365714"
            height="66.45865933365714"
            width="395.52"
        >
            <g>
                <svg
                    viewBox="0 0 494.77831245962955 83.13689146803269"
                    height="66.45865933365714"
                    width="395.52"
                >
                    <g
                        transform="matrix(1,0,0,1,99.25831245962958,24.496167112304597)"
                    >
                        <svg
                            viewBox="0 0 395.52 34.14455724342349"
                            height="34.14455724342349"
                            width="395.52"
                        >
                            <g id="textblocktransform">
                                <svg
                                    viewBox="0 0 395.52 34.14455724342349"
                                    height="34.14455724342349"
                                    width="395.52"
                                    id="textblock"
                                >
                                    <g>
                                        <svg
                                            viewBox="0 0 395.52 34.14455724342349"
                                            height="34.14455724342349"
                                            width="395.52"
                                        >
                                            <g transform="matrix(1,0,0,1,0,0)">
                                                <svg
                                                    width="395.52"
                                                    viewBox="0 -34.95000076293945 407.7300109863281 34.95000076293945"
                                                    height="34.14455724342349"
                                                    data-palette-color="#89939e"
                                                >
                                                    <g
                                                        class="undefined-text-0"
                                                        data-fill-palette-color="primary"
                                                        id="text-0"
                                                    >
                                                        <path
                                                            d="M28.85-2.15L35.3-2.15 35.3 0 0 0 0-2.15 4.85-2.15 4.85-34.95 18.45-34.95Q22-34.95 24.58-34.1 27.15-33.25 28.4-31.8L28.4-31.8Q30.8-29.1 30.8-25.7L30.8-25.7Q30.8-21.6 28.2-19.6L28.2-19.6Q27.25-18.9 26.9-18.73 26.55-18.55 25.65-18.15L25.65-18.15Q28.9-17.45 30.83-15.23 32.75-13 32.75-9.7L32.75-9.7Q32.75-4.75 28.85-2.15L28.85-2.15ZM10.75-15L10.75-5.45 20-5.45Q23.25-5.45 24.98-6.48 26.7-7.5 26.7-10.35L26.7-10.35Q26.7-15 19.25-15L19.25-15 10.75-15ZM10.75-29.5L10.75-20.45 18.25-20.45Q24.65-20.45 24.65-24.8L24.65-24.8Q24.65-27.3 23.1-28.4 21.55-29.5 18.3-29.5L18.3-29.5 10.75-29.5ZM35.3-2.15L40.15-2.15 40.15-34.95 64.7-34.95 64.7-29.4 46.05-29.4 46.05-20.15 62.8-20.15 62.8-14.9 46.05-14.9 46.05-5.55 65.3-5.55 65.3-2.15 70.15-2.15 70.15 0 35.3 0 35.3-2.15ZM86.05-2.15L98.2-2.15 98.2 0 68 0 68-2.15 80.15-2.15 80.15-29.55 69.55-29.55 69.55-34.95 96.65-34.95 96.65-29.55 86.05-29.55 86.05-2.15ZM116.24-2.15L128.39-2.15 128.39 0 98.19 0 98.19-2.15 110.34-2.15 110.34-29.55 99.74-29.55 99.74-34.95 126.84-34.95 126.84-29.55 116.24-29.55 116.24-2.15ZM128.39-2.15L133.24-2.15 133.24-34.95 157.79-34.95 157.79-29.4 139.14-29.4 139.14-20.15 155.89-20.15 155.89-14.9 139.14-14.9 139.14-5.55 158.39-5.55 158.39-2.15 163.24-2.15 163.24 0 128.39 0 128.39-2.15ZM193.89-2.15L198.74-2.15 198.74 0 187.94 0 179.59-11.75 171.84-11.75 171.84 0 161.09 0 161.09-2.15 165.94-2.15 165.94-34.95 178.94-34.95Q186.94-34.95 190.39-32.25 193.84-29.55 193.84-23.6L193.84-23.6Q193.84-14.95 186.29-12.7L186.29-12.7 193.89-2.15ZM179.19-17.1Q184.19-17.1 185.99-18.65 187.79-20.2 187.79-23.63 187.79-27.05 185.94-28.33 184.09-29.6 179.34-29.6L179.34-29.6 171.84-29.6 171.84-17.1 179.19-17.1Z"
                                                            fill="#89939e"
                                                            data-fill-palette-color="primary"
                                                        ></path>
                                                        <path
                                                            d="M239.09-2.15L251.14-2.15 251.14 0 232.49 0 225.14-23.95 224.74-23.95 217.39 0 198.74 0 198.74-2.15 210.79-2.15 199.34-34.95 205.69-34.95 214.49-9.8 222.29-34.95 227.59-34.95 235.39-9.8 244.19-34.95 250.54-34.95 239.09-2.15ZM287.29-2.15L293.09-2.15 293.09 0 281.94 0 278.44-7.95 260.94-7.95 257.44 0 246.29 0 246.29-2.15 252.09-2.15 266.54-34.95 272.84-34.95 287.29-2.15ZM263.34-13.4L276.04-13.4 269.69-27.8 263.34-13.4ZM314.94-2.15L319.79-2.15 319.79 0 288.24 0 288.24-2.15 293.08-2.15 293.08-34.95 298.99-34.95 298.99-5.6 314.94-5.6 314.94-2.15ZM343.23-2.15L348.08-2.15 348.08 0 316.53 0 316.53-2.15 321.38-2.15 321.38-34.95 327.28-34.95 327.28-5.6 343.23-5.6 343.23-2.15ZM344.83-2.15L349.68-2.15 349.68-34.95 374.23-34.95 374.23-29.4 355.58-29.4 355.58-20.15 372.33-20.15 372.33-14.9 355.58-14.9 355.58-5.55 374.83-5.55 374.83-2.15 379.68-2.15 379.68 0 344.83 0 344.83-2.15ZM395.58-2.15L407.73-2.15 407.73 0 377.53 0 377.53-2.15 389.68-2.15 389.68-29.55 379.08-29.55 379.08-34.95 406.18-34.95 406.18-29.55 395.58-29.55 395.58-2.15Z"
                                                            fill="#dedede"
                                                            data-fill-palette-color="secondary"
                                                        ></path>
                                                    </g>
                                                </svg>
                                            </g>
                                        </svg>
                                    </g>
                                </svg>
                            </g>
                        </svg>
                    </g>
                    <g>
                        <svg
                            viewBox="0 0 83.13689146803269 83.13689146803269"
                            height="83.13689146803269"
                            width="83.13689146803269"
                        >
                            <g><svg></svg></g>
                            <g id="icon-0">
                                <svg
                                    viewBox="0 0 83.13689146803269 83.13689146803269"
                                    height="83.13689146803269"
                                    width="83.13689146803269"
                                >
                                    <g>
                                        <path
                                            d="M0 41.568c0-22.958 18.611-41.568 41.568-41.568 22.958 0 41.568 18.611 41.569 41.568 0 22.958-18.611 41.568-41.569 41.569-22.958 0-41.568-18.611-41.568-41.569zM41.568 80.058c21.257 0 38.489-17.232 38.49-38.49 0-21.257-17.232-38.489-38.49-38.489-21.257 0-38.489 17.232-38.489 38.489 0 21.257 17.232 38.489 38.489 38.49z"
                                            data-fill-palette-color="accent"
                                            fill="#dedede"
                                            stroke="transparent"
                                        ></path>
                                    </g>
                                    <g
                                        transform="matrix(1,0,0,1,17.51286269720045,29.510921401062582)"
                                    >
                                        <svg
                                            viewBox="0 0 48.111166073631786 24.115048665907526"
                                            height="24.115048665907526"
                                            width="48.111166073631786"
                                        >
                                            <g>
                                                <svg
                                                    xmlns="http://www.w3.org/2000/svg"
                                                    xmlns:xlink="http://www.w3.org/1999/xlink"
                                                    xml:space="preserve"
                                                    style="
                                                        shape-rendering: geometricPrecision;
                                                        text-rendering: geometricPrecision;
                                                        image-rendering: optimizeQuality;
                                                    "
                                                    viewBox="0.0000020265579223632812 0.0000027120113372802734 14.727499008178711 7.38195276260376"
                                                    x="0"
                                                    y="0"
                                                    fill-rule="evenodd"
                                                    clip-rule="evenodd"
                                                    width="48.111166073631786"
                                                    height="24.115048665907526"
                                                    class="icon-s-0"
                                                    data-fill-palette-color="accent"
                                                    id="s-0"
                                                >
                                                    <g
                                                        fill="#dedede"
                                                        data-fill-palette-color="accent"
                                                    >
                                                        <path
                                                            class=""
                                                            d="M1.757 3.091c-0.313 0.444-0.296 1.331-0.417 1.95-0.153 0.784-0.711 1.203-1.34 1.534 0.188-0.771 0.348-1.542 0.412-2.313 0.078-0.953-0.06-0.891 0.767-1.575 1.159-0.961 3.04-1.741 5.848-2.29 2.456-0.406 5.049-0.453 7.701-0.351-0.89 1.809-3.733 1.961-7.203 1.581-1.811 0.02-3.495-0.488-5.768 1.464z m8.33 2.781c-3.895 2.038-7.803-2.284-9.165 0.688 2.104-1.831 5.079 3.183 9.165-0.688z m2.489-2.547c-4.49 2.72-9.502-0.792-10.907 1.859 3.412-1.235 7.765 2.753 10.907-1.859z m0.834-1.478c-3.944 1.761-10.043-1.402-11.565 2.239 3.106-1.808 8.446 1.438 11.565-2.239z"
                                                            fill="#dedede"
                                                            data-fill-palette-color="accent"
                                                        ></path>
                                                    </g>
                                                </svg>
                                            </g>
                                        </svg>
                                    </g>
                                </svg>
                            </g>
                        </svg>
                    </g>
                </svg>
            </g>
            <defs></defs>
        </svg>
        <rect
            width="395.52"
            height="66.45865933365714"
            fill="none"
            stroke="none"
            visibility="hidden"
        ></rect>
    </g>
</svg>
