<svg id="visual" viewBox="0 0 960 540" width="960" height="540" xmlns="http://www.w3.org/2000/svg" xmlns:xlink="http://www.w3.org/1999/xlink" version="1.1"><rect x="0" y="0" width="960" height="540" fill="#FFFFFF"></rect><path d="M0 392L22.8 382.3C45.7 372.7 91.3 353.3 137 352C182.7 350.7 228.3 367.3 274 354.3C319.7 341.3 365.3 298.7 411.2 275.8C457 253 503 250 548.8 263C594.7 276 640.3 305 686 329.3C731.7 353.7 777.3 373.3 823 354C868.7 334.7 914.3 276.3 937.2 247.2L960 218L960 541L937.2 541C914.3 541 868.7 541 823 541C777.3 541 731.7 541 686 541C640.3 541 594.7 541 548.8 541C503 541 457 541 411.2 541C365.3 541 319.7 541 274 541C228.3 541 182.7 541 137 541C91.3 541 45.7 541 22.8 541L0 541Z" fill="#00DCCA" stroke-linecap="round" stroke-linejoin="miter"></path></svg>