<svg
    version="1.0"
    xmlns="http://www.w3.org/2000/svg"
    viewBox="0 0 355.000000 455.000000"
    preserveAspectRatio="xMidYMid meet"
>
    <g transform="translate(0.000000,455.000000) scale(0.100000,-0.100000)" fill="#68d391" stroke="none">
        <path
            d="M1564 4029 c-313 -28 -545 -123 -719 -294 -194 -191 -271 -399 -246
-663 27 -282 116 -431 348 -586 139 -92 267 -148 753 -326 228 -84 442 -165
475 -179 254 -110 370 -239 397 -443 22 -169 -23 -292 -154 -421 -144 -141
-316 -204 -584 -214 -236 -9 -397 21 -555 103 -207 107 -329 283 -347 498 l-7
81 -208 3 -208 2 7 -67 c3 -38 15 -113 26 -168 84 -429 432 -727 958 -822 144
-26 476 -23 630 5 326 59 563 189 732 400 128 161 185 342 174 557 -18 376
-178 606 -551 793 -127 63 -205 92 -645 242 -448 152 -564 202 -652 280 -101
90 -149 238 -127 395 25 188 198 356 428 416 98 26 331 36 456 20 288 -38 473
-185 541 -428 l17 -63 205 0 204 0 -7 57 c-10 85 -50 214 -91 296 -163 325
-456 494 -914 526 -161 12 -204 12 -336 0z"
        />
    </g>
</svg>
