<?xml version="1.0" standalone="no"?>
<!DOCTYPE svg PUBLIC "-//W3C//DTD SVG 20010904//EN"
 "http://www.w3.org/TR/2001/REC-SVG-20010904/DTD/svg10.dtd">
<svg version="1.0" xmlns="http://www.w3.org/2000/svg"
 width="256.000000pt" height="256.000000pt" viewBox="0 0 256.000000 256.000000"
 preserveAspectRatio="xMidYMid meet">
<metadata>
Created by potrace 1.14, written by Peter Selinger 2001-2017
</metadata>
<g transform="translate(0.000000,256.000000) scale(0.100000,-0.100000)"
fill="#000000" stroke="none">
<path d="M0 2320 l0 -241 52 40 c259 193 645 176 935 -40 29 -22 54 -39 57
-39 3 0 33 50 66 110 56 99 64 110 90 110 28 0 28 -1 34 -77 3 -43 8 -241 12
-441 l6 -364 -27 4 c-25 3 -31 14 -74 123 -139 353 -303 553 -520 636 -69 26
-214 36 -290 20 -128 -27 -235 -111 -294 -230 -29 -60 -32 -75 -35 -181 -6
-185 39 -311 149 -420 72 -71 165 -123 374 -211 523 -217 688 -343 771 -586
45 -131 44 -365 -2 -494 l-13 -39 634 0 635 0 0 1280 0 1280 -1280 0 -1280 0
0 -240z m2035 -367 c53 -28 110 -84 137 -136 18 -34 23 -63 26 -154 l4 -113
32 0 c17 0 42 -7 54 -16 22 -15 22 -16 22 -316 0 -266 -2 -304 -17 -320 -15
-17 -40 -18 -386 -18 -331 0 -372 2 -389 17 -17 15 -18 38 -18 312 0 338 1
341 71 341 l39 0 0 93 c0 117 18 171 77 237 72 80 123 101 233 96 51 -2 88 -9
115 -23z"/>
<path d="M1845 1855 c-50 -18 -100 -71 -114 -122 -6 -21 -11 -71 -11 -110 l0
-73 185 0 185 0 0 73 c0 39 -5 90 -11 112 -14 51 -73 110 -124 124 -50 14 -61
13 -110 -4z"/>
<path d="M0 506 l0 -506 550 0 550 0 0 98 c0 184 -53 315 -169 425 -79 74
-154 115 -421 227 -230 97 -374 167 -438 213 -26 18 -53 36 -59 41 -10 6 -13
-97 -13 -498z"/>
</g>
</svg>
